<svg width="474" height="345" viewBox="0 0 474 345" fill="none" xmlns="http://www.w3.org/2000/svg">
<g clip-path="url(#clip0_4_54)">
<path d="M32.9288 345H3.31644C1.48605 345 0 343.713 0 342.137V152.121C0 150.544 1.48605 149.258 3.31644 149.258H32.9288C34.7592 149.258 36.2452 150.544 36.2452 152.121V342.137C36.2452 343.713 34.7592 345 32.9288 345Z" fill="black"/>
<path d="M215.459 109.406H185.829C184.071 109.406 182.585 108.047 182.512 106.289C180.881 67.3798 148.714 36.2452 109.406 36.2452C70.0979 36.2452 37.9484 67.3798 36.3174 106.289C36.2449 108.047 34.7588 109.406 33.0009 109.406H3.37046C1.52196 109.406 -0.000342965 107.884 0.0540248 106.035C1.84816 47.2637 50.2174 0 109.406 0C168.594 0 216.982 47.2637 218.776 106.035C218.83 107.884 217.308 109.406 215.459 109.406Z" fill="black"/>
<path d="M470.626 109.406H440.995C439.238 109.406 437.752 108.047 437.679 106.289C436.048 67.3798 403.88 36.2452 364.572 36.2452C325.265 36.2452 293.115 67.3798 291.484 106.289C291.411 108.047 289.925 109.406 288.168 109.406H258.537C256.689 109.406 255.166 107.884 255.221 106.035C257.015 47.2637 305.384 0 364.572 0C423.761 0 472.148 47.2637 473.942 106.035C473.997 107.884 472.474 109.406 470.626 109.406Z" fill="black"/>
<path d="M440.973 251.064C439.215 251.064 437.82 252.243 437.656 253.749C434.303 287.15 402.532 310.863 363.239 310.863C337.357 310.863 317.403 307.906 295.074 293.174C279.36 282.796 268.884 270.985 259.659 255.672C252.083 243.117 246.266 230.236 240.774 216.066L219.478 151.476C219.079 150.243 217.774 149.408 216.288 149.408H187.018C184.788 149.408 183.194 151.259 183.846 153.091L208.35 222.543C213.08 235.969 216.198 244.587 222.106 257.541C223.9 261.46 227.906 269.969 230.28 274.015C238.744 288.438 250.561 303.189 264.625 314.057C292.536 335.61 320.031 345.353 364.58 345.353C423.791 345.353 472.147 304.622 473.941 253.985C473.995 252.388 472.473 251.082 470.624 251.082H440.991L440.973 251.064Z" fill="black"/>
</g>
<defs>
<clipPath id="clip0_4_54">
<rect width="473.942" height="345" fill="white"/>
</clipPath>
</defs>
</svg>
