<svg width="171" height="43" viewBox="0 0 171 43" fill="none" xmlns="http://www.w3.org/2000/svg">
<g filter="url(#filter0_d_11_213)">
<rect x="3" width="168" height="40" fill="#FFCD1D"/>
<rect x="3.5" y="0.5" width="167" height="39" stroke="black"/>
</g>
<path d="M29.872 26.24C29.1253 26.24 28.424 26.1093 27.768 25.848C27.1173 25.5813 26.544 25.192 26.048 24.68C25.5573 24.168 25.1733 23.5413 24.896 22.8C24.6187 22.0533 24.48 21.2 24.48 20.24C24.48 18.9813 24.7147 17.9067 25.184 17.016C25.6533 16.12 26.296 15.4347 27.112 14.96C27.928 14.48 28.848 14.24 29.872 14.24C31.2907 14.24 32.4133 14.5707 33.24 15.232C34.072 15.888 34.6347 16.8107 34.928 18L32.96 18.312C32.7413 17.6293 32.384 17.0853 31.888 16.68C31.392 16.2693 30.76 16.064 29.992 16.064C29.2187 16.0533 28.576 16.2213 28.064 16.568C27.552 16.9147 27.1653 17.4027 26.904 18.032C26.648 18.6613 26.52 19.3973 26.52 20.24C26.52 21.0827 26.648 21.816 26.904 22.44C27.16 23.0587 27.544 23.5413 28.056 23.888C28.5733 24.2347 29.2187 24.4133 29.992 24.424C30.5733 24.4293 31.0827 24.3253 31.52 24.112C31.9573 23.8933 32.3147 23.5653 32.592 23.128C32.8693 22.6853 33.056 22.1333 33.152 21.472H31.12V19.96H35.2C35.2107 20.0453 35.2187 20.1707 35.224 20.336C35.2293 20.5013 35.232 20.6 35.232 20.632C35.232 21.72 35.016 22.688 34.584 23.536C34.1573 24.3787 33.544 25.04 32.744 25.52C31.944 26 30.9867 26.24 29.872 26.24ZM40.7668 26.24C39.8921 26.24 39.1241 26.0507 38.4628 25.672C37.8014 25.2933 37.2841 24.768 36.9108 24.096C36.5428 23.424 36.3588 22.6507 36.3588 21.776C36.3588 20.832 36.5401 20.0133 36.9028 19.32C37.2654 18.6213 37.7694 18.08 38.4148 17.696C39.0601 17.312 39.8068 17.12 40.6548 17.12C41.5508 17.12 42.3108 17.3307 42.9348 17.752C43.5641 18.168 44.0308 18.7573 44.3348 19.52C44.6388 20.2827 44.7534 21.1813 44.6788 22.216H42.7668V21.512C42.7614 20.5733 42.5961 19.888 42.2708 19.456C41.9454 19.024 41.4334 18.808 40.7348 18.808C39.9454 18.808 39.3588 19.0533 38.9748 19.544C38.5908 20.0293 38.3988 20.7413 38.3988 21.68C38.3988 22.5547 38.5908 23.232 38.9748 23.712C39.3588 24.192 39.9188 24.432 40.6548 24.432C41.1294 24.432 41.5374 24.328 41.8788 24.12C42.2254 23.9067 42.4921 23.6 42.6788 23.2L44.5828 23.776C44.2521 24.5547 43.7401 25.16 43.0468 25.592C42.3588 26.024 41.5988 26.24 40.7668 26.24ZM37.7908 22.216V20.76H43.7348V22.216H37.7908ZM51.5278 26C50.9571 26.1067 50.3971 26.152 49.8478 26.136C49.3038 26.1253 48.8158 26.0267 48.3838 25.84C47.9518 25.648 47.6238 25.3467 47.3997 24.936C47.2024 24.5627 47.0984 24.1813 47.0878 23.792C47.0771 23.4027 47.0718 22.9627 47.0718 22.472V14.96H48.9918V22.36C48.9918 22.7067 48.9944 23.0107 48.9998 23.272C49.0104 23.5333 49.0664 23.7467 49.1678 23.912C49.3598 24.232 49.6664 24.4107 50.0878 24.448C50.5091 24.4853 50.9891 24.464 51.5278 24.384V26ZM45.5038 18.872V17.36H51.5278V18.872H45.5038ZM61.6528 26C61.0821 26.1067 60.5221 26.152 59.9728 26.136C59.4288 26.1253 58.9408 26.0267 58.5088 25.84C58.0768 25.648 57.7488 25.3467 57.5247 24.936C57.3274 24.5627 57.2234 24.1813 57.2128 23.792C57.2021 23.4027 57.1968 22.9627 57.1968 22.472V14.96H59.1168V22.36C59.1168 22.7067 59.1194 23.0107 59.1248 23.272C59.1354 23.5333 59.1914 23.7467 59.2928 23.912C59.4848 24.232 59.7914 24.4107 60.2128 24.448C60.6341 24.4853 61.1141 24.464 61.6528 24.384V26ZM55.6288 18.872V17.36H61.6528V18.872H55.6288ZM66.8891 26.24C66.0251 26.24 65.2705 26.0453 64.6251 25.656C63.9798 25.2667 63.4785 24.7307 63.1211 24.048C62.7691 23.36 62.5931 22.5707 62.5931 21.68C62.5931 20.7733 62.7745 19.9787 63.1371 19.296C63.4998 18.6133 64.0038 18.08 64.6491 17.696C65.2945 17.312 66.0411 17.12 66.8891 17.12C67.7585 17.12 68.5158 17.3147 69.1611 17.704C69.8065 18.0933 70.3078 18.632 70.6651 19.32C71.0225 20.0027 71.2011 20.7893 71.2011 21.68C71.2011 22.576 71.0198 23.368 70.6571 24.056C70.2998 24.7387 69.7985 25.2747 69.1531 25.664C68.5078 26.048 67.7531 26.24 66.8891 26.24ZM66.8891 24.432C67.6571 24.432 68.2278 24.176 68.6011 23.664C68.9745 23.152 69.1611 22.4907 69.1611 21.68C69.1611 20.8427 68.9718 20.176 68.5931 19.68C68.2145 19.1787 67.6465 18.928 66.8891 18.928C66.3718 18.928 65.9451 19.0453 65.6091 19.28C65.2785 19.5093 65.0331 19.832 64.8731 20.248C64.7131 20.6587 64.6331 21.136 64.6331 21.68C64.6331 22.5173 64.8225 23.1867 65.2011 23.688C65.5851 24.184 66.1478 24.432 66.8891 24.432ZM76.1509 26L76.1669 14.48H78.1189V21.52L81.2789 17.36H83.6869L80.3349 21.68L83.9749 26H81.4229L78.1189 21.84V26H76.1509ZM90.7523 26V21.84C90.7523 21.568 90.7336 21.2667 90.6963 20.936C90.6589 20.6053 90.5709 20.288 90.4323 19.984C90.2989 19.6747 90.0963 19.4213 89.8243 19.224C89.5576 19.0267 89.1949 18.928 88.7363 18.928C88.4909 18.928 88.2483 18.968 88.0083 19.048C87.7683 19.128 87.5496 19.2667 87.3523 19.464C87.1603 19.656 87.0056 19.9227 86.8883 20.264C86.7709 20.6 86.7123 21.032 86.7123 21.56L85.5683 21.072C85.5683 20.336 85.7096 19.6693 85.9923 19.072C86.2803 18.4747 86.7016 18 87.2563 17.648C87.8109 17.2907 88.4936 17.112 89.3043 17.112C89.9443 17.112 90.4723 17.2187 90.8883 17.432C91.3043 17.6453 91.6349 17.9173 91.8802 18.248C92.1256 18.5787 92.3069 18.9307 92.4243 19.304C92.5416 19.6773 92.6163 20.032 92.6483 20.368C92.6856 20.6987 92.7043 20.968 92.7043 21.176V26H90.7523ZM84.7603 26V17.36H86.4803V20.04H86.7123V26H84.7603ZM98.4673 26.24C97.6033 26.24 96.8486 26.0453 96.2033 25.656C95.5579 25.2667 95.0566 24.7307 94.6993 24.048C94.3473 23.36 94.1713 22.5707 94.1713 21.68C94.1713 20.7733 94.3526 19.9787 94.7153 19.296C95.0779 18.6133 95.5819 18.08 96.2273 17.696C96.8726 17.312 97.6193 17.12 98.4673 17.12C99.3366 17.12 100.094 17.3147 100.739 17.704C101.385 18.0933 101.886 18.632 102.243 19.32C102.601 20.0027 102.779 20.7893 102.779 21.68C102.779 22.576 102.598 23.368 102.235 24.056C101.878 24.7387 101.377 25.2747 100.731 25.664C100.086 26.048 99.3313 26.24 98.4673 26.24ZM98.4673 24.432C99.2353 24.432 99.8059 24.176 100.179 23.664C100.553 23.152 100.739 22.4907 100.739 21.68C100.739 20.8427 100.55 20.176 100.171 19.68C99.7926 19.1787 99.2246 18.928 98.4673 18.928C97.9499 18.928 97.5233 19.0453 97.1873 19.28C96.8566 19.5093 96.6113 19.832 96.4513 20.248C96.2913 20.6587 96.2113 21.136 96.2113 21.68C96.2113 22.5173 96.4006 23.1867 96.7793 23.688C97.1633 24.184 97.7259 24.432 98.4673 24.432ZM106.069 26L103.429 17.344L105.317 17.36L107.005 22.904L108.717 17.36H110.341L112.045 22.904L113.741 17.36H115.629L112.989 26H111.485L109.525 20.056L107.573 26H106.069ZM130.652 26V20.752C130.652 20.16 130.506 19.6987 130.212 19.368C129.919 19.032 129.522 18.864 129.02 18.864C128.711 18.864 128.434 18.936 128.188 19.08C127.943 19.2187 127.748 19.4267 127.604 19.704C127.46 19.976 127.388 20.3013 127.388 20.68L126.532 20.176C126.527 19.5787 126.66 19.0533 126.932 18.6C127.21 18.1413 127.583 17.784 128.052 17.528C128.522 17.272 129.044 17.144 129.62 17.144C130.575 17.144 131.306 17.432 131.812 18.008C132.324 18.5787 132.58 19.3307 132.58 20.264V26H130.652ZM120.26 26V17.36H121.964V20.04H122.204V26H120.26ZM125.468 26V20.776C125.468 20.1733 125.322 19.704 125.028 19.368C124.735 19.032 124.335 18.864 123.828 18.864C123.338 18.864 122.943 19.032 122.644 19.368C122.351 19.704 122.204 20.1413 122.204 20.68L121.34 20.104C121.34 19.544 121.479 19.04 121.756 18.592C122.034 18.144 122.407 17.792 122.876 17.536C123.351 17.2747 123.882 17.144 124.468 17.144C125.114 17.144 125.652 17.2827 126.084 17.56C126.522 17.832 126.847 18.2053 127.06 18.68C127.279 19.1493 127.388 19.68 127.388 20.272V26H125.468ZM138.454 26.24C137.58 26.24 136.812 26.0507 136.15 25.672C135.489 25.2933 134.972 24.768 134.598 24.096C134.23 23.424 134.046 22.6507 134.046 21.776C134.046 20.832 134.228 20.0133 134.59 19.32C134.953 18.6213 135.457 18.08 136.102 17.696C136.748 17.312 137.494 17.12 138.342 17.12C139.238 17.12 139.998 17.3307 140.622 17.752C141.252 18.168 141.718 18.7573 142.022 19.52C142.326 20.2827 142.441 21.1813 142.366 22.216H140.454V21.512C140.449 20.5733 140.284 19.888 139.958 19.456C139.633 19.024 139.121 18.808 138.422 18.808C137.633 18.808 137.046 19.0533 136.662 19.544C136.278 20.0293 136.086 20.7413 136.086 21.68C136.086 22.5547 136.278 23.232 136.662 23.712C137.046 24.192 137.606 24.432 138.342 24.432C138.817 24.432 139.225 24.328 139.566 24.12C139.913 23.9067 140.18 23.6 140.366 23.2L142.27 23.776C141.94 24.5547 141.428 25.16 140.734 25.592C140.046 26.024 139.286 26.24 138.454 26.24ZM135.478 22.216V20.76H141.422V22.216H135.478ZM144.951 26V24.232H146.879V26H144.951ZM144.951 23.12V14.48H146.879V23.12H144.951Z" fill="black"/>
<defs>
<filter id="filter0_d_11_213" x="0" y="0" width="171" height="43" filterUnits="userSpaceOnUse" color-interpolation-filters="sRGB">
<feFlood flood-opacity="0" result="BackgroundImageFix"/>
<feColorMatrix in="SourceAlpha" type="matrix" values="0 0 0 0 0 0 0 0 0 0 0 0 0 0 0 0 0 0 127 0" result="hardAlpha"/>
<feOffset dx="-3" dy="3"/>
<feComposite in2="hardAlpha" operator="out"/>
<feColorMatrix type="matrix" values="0 0 0 0 0 0 0 0 0 0 0 0 0 0 0 0 0 0 1 0"/>
<feBlend mode="normal" in2="BackgroundImageFix" result="effect1_dropShadow_11_213"/>
<feBlend mode="normal" in="SourceGraphic" in2="effect1_dropShadow_11_213" result="shape"/>
</filter>
</defs>
</svg>
